<?xml version="1.0" ?><svg id="Layer_6" style="enable-background:new 0 0 128 128;" version="1.1" viewBox="0 0 128 128" xml:space="preserve" xmlns="http://www.w3.org/2000/svg" xmlns:xlink="http://www.w3.org/1999/xlink"><style type="text/css">
	.st0{fill:#F4A20F;}
	.st1{fill:#C18100;}
	.st2{fill:#FAC0FF;}
	.st3{fill:#FA9CFF;}
	.st4{fill:#6CE5E1;}
	.st5{fill:#FFFFA4;}
	.st6{fill:#85FF85;}
	.st7{fill:#BCF7BC;}
	.st8{fill:#231F20;}
</style><path class="st0" d="M65.9,73.5l-9.9,34c-1.6-6-3.2-12.1-4.8-18.1c-0.4-1.5-1.5-2.1-2.8-2.3c-3.2-0.4-12.1-2-13.4-6.1  c-0.9-2.8,0.9-9.6,2.9-13.5c0.1,0.1,0.3,0.2,0.4,0.3c7.7,5.1,17.6,5.7,26.3,5.7C65,73.5,65.5,73.5,65.9,73.5z"/><path class="st1" d="M92.1,82c-2.5,3.3-9.2,4.6-12.6,5.1c-1.3,0.2-2.4,0.8-2.8,2.3c-2.1,7.8-4.1,15.7-6.2,23.6c-2,0-3.9,0.1-5.9,0.1  c-2.4,0-4.9-0.1-7.3-0.1c-0.5-1.8-1-3.6-1.4-5.5l9.9-34c8.3-0.1,17.5-0.6,24.7-5.3C92.6,72.2,94.1,79.4,92.1,82z"/><path class="st2" d="M70.2,60.7l-2.5,9.4c-1,0-2.1,0-3.1,0c-5.1,0-10.3-0.3-15.3-1.7c-2.6-0.7-16.1-6.4-8.8-9.5  c0.2-0.1,0.4-0.2,0.5-0.3c5.8,1.6,11.7,1.9,17.6,1C62.5,60.4,66.4,60.7,70.2,60.7z"/><path class="st3" d="M80.6,68.5c-4.2,1.2-8.6,1.5-12.9,1.6l2.5-9.4c6.1,0,12.3-0.7,18.4-1.9c0.1,0,0.2,0.1,0.3,0.2  C95.9,62,83.3,67.7,80.6,68.5z"/><path class="st4" d="M73.1,56.1c4.9-0.3,9.9-0.9,14.7-1.7c1-1.4,2-2.8,3-4.3c-1.6-1-3.2-1.9-4.9-2.8C82.1,50.8,77.8,53.8,73.1,56.1z  "/><path class="st5" d="M41.2,42.3c0.1,0,0.1,0,0.2,0.1c6.6,3.2,14.6,1.2,20.9-1.9c1.9-0.9,6.1-2.7,9.2-4.7c-3.4-1.1-6.2-3.9-8-7.6  c-1.2-2.4-1.8-4.9-2.3-7.4c-5.6,8.1-11.5,16.7-20.5,20.6C40.8,41.7,41,42,41.2,42.3z"/><path class="st6" d="M87.9,39.9c-3.1-0.7-6.7-2.5-9.2-4.3l-3.9,14C79.3,46.8,84.4,44.3,87.9,39.9z"/><path class="st7" d="M64.2,43.9c-6.7,3.6-14.4,5.3-21.5,2.9c-1.7,0.9-3.3,1.9-4.8,3.1c0,0.1,0,0.1,0,0.2c0.8,1.3,1.7,2.7,2.5,4  c5.7,1.8,11.7,2.2,17.5,1.4c0.2-0.1,0.5-0.1,0.8-0.1c5.6-0.9,11.1-2.9,16.1-5.9l3.9-14c-0.4-0.3-0.7-0.6-1.1-0.9  C74.1,38.9,67.9,41.9,64.2,43.9z"/><path class="st8" d="M94,66.3c1.4-1.4,2.5-3.1,2.6-4.9c0.1-2.4-1.7-4.2-3.7-5.4c1.2-1.7,2.3-3.3,3.5-5c0.6-0.9,0.5-2.6-0.4-3.3  c-1.6-1.3-3.3-2.4-5.1-3.5c0.7-1.2,1.3-2.5,1.6-4c0.5-1,0.3-2-0.4-2.7c-0.3-0.5-0.8-0.9-1.5-1c-5.4-1.3-9.4-0.9-13.1-5.3  c-0.8-1-1.9-1.1-2.8-0.7c0,0-0.1,0-0.1,0c-8.2,2.1-8.2-10.7-9.8-15.6c-0.8-2.4-3.6-2.6-5-0.7c-5.7,7.9-11.1,19.3-21.1,22.3  c-1.5,0.4-2.2,1.9-1.9,3.4c0.3,1.6,0.9,3.1,1.7,4.4c-1.8,1-3.4,2.2-5.1,3.5c-0.9,0.7-1.1,2.4-0.4,3.3c1.2,1.7,2.3,3.3,3.5,5  c-2,1.2-3.8,3-3.7,5.4c0,1.5,0.8,2.9,1.8,4.1c-3.1,4.9-5.4,13.4-3.4,17.8c2.4,5.4,9.9,7.4,15.7,8.3c2,7.1,4,14.1,6,21.2  c0.3,1.2,1.4,2,2.7,2c3,0,6.1,0.1,9.1,0.1c2.6,0,5.1-0.1,7.7-0.1c1.2,0,2.3-0.8,2.7-2c2-7.1,4-14.1,6-21.2  c5.6-0.9,12.9-2.9,15.5-7.9C98.8,79.6,96.9,71.2,94,66.3z M64.6,68.9c-4.9,0-9.9-0.2-14.8-1.4c-2.5-0.6-15.5-5.2-8.5-7.8  c0.2-0.1,0.4-0.2,0.5-0.3c5.6,1.3,11.3,1.6,17,0.9c9.7,1.5,19.4,0.8,29-0.7c0.1,0,0.2,0.1,0.3,0.1c6.8,2.5-5.4,7.2-8,7.8  C75,68.8,69.7,68.9,64.6,68.9z M63.8,45.2c3.4-1.6,9.2-4.2,12.4-7.7c2.7,2.1,5.5,2.7,8.8,3.4c-6.8,7.6-16.4,12.5-26.4,13.9  c-0.3,0-0.5,0-0.7,0.1c-5.5,0.7-11,0.3-16.3-1.2c-0.8-1.1-1.6-2.3-2.4-3.4c1.5-1,3-1.8,4.6-2.6C50.3,49.7,57.6,48.2,63.8,45.2z   M87.5,54.1c-4.4,0.7-8.8,1.3-13.2,1.5c4.2-2.1,8.1-4.7,11.5-7.8c1.5,0.8,3,1.6,4.4,2.5C89.3,51.6,88.4,52.8,87.5,54.1z M60.9,22.3  c0.4,2.2,0.9,4.5,2,6.6c1.6,3.3,4,5.8,7,6.8c-2.7,1.8-6.4,3.4-8.1,4.2c-5.5,2.8-12.5,4.6-18.4,1.7c-0.1,0-0.1,0-0.2-0.1  c-0.2-0.3-0.3-0.6-0.5-0.9C50.8,37.3,56,29.6,60.9,22.3z M91,82c-2.4,2.9-8.8,4.1-12.1,4.5c-1.2,0.2-2.3,0.8-2.7,2c-2,7-4,14-6,21  c-1.9,0-3.8,0.1-5.6,0.1c-2.3,0-4.7-0.1-7-0.1c-2-7-4-14-6-20.9c-0.4-1.3-1.4-1.9-2.7-2c-3.1-0.4-11.6-1.8-12.9-5.5  c-0.9-2.5,0.9-8.5,2.8-12c0.1,0.1,0.2,0.2,0.4,0.2c7.4,4.6,16.9,5,25.3,5.1c8.3,0,17.7-0.3,25-4.7C91.5,73.3,92.9,79.7,91,82z"/></svg>